General                          : ChattChitto RG - Movies [R2L]
==========
Complete name                    : Fair Game 2010 720p BRRip H264 [ChattChitto RG]
Format                           : MPEG-4
Format profile                   : Base Media
Codec ID                         : isom
File size                        : 2.00 GiB
Duration                         : 1h 47mn
Overall bit rate                 : 2 654 Kbps
Encoded date                     : UTC 2011-03-22 19:52:49

Video
==========
ID                               : 1
Format                           : AVC
Format/Info                      : Advanced Video Codec
Format profile                   : High@L4.1
Format settings, CABAC           : Yes
Format settings, ReFrames        : 4 frames
Codec ID                         : avc1
Codec ID/Info                    : Advanced Video Coding
Duration                         : 1h 47mn
Bit rate mode                    : Variable
Bit rate                         : 2 300 Kbps
Maximum bit rate                 : 14.2 Mbps
Width                            : 1 280 pixels
Height                           : 528 pixels
Display aspect ratio             : 2.40:1
Frame rate mode                  : Constant
Frame rate                       : 23.976 fps
Color space                      : YUV
Chroma subsampling               : 4:2:0
Bit depth                        : 8 bits
Scan type                        : Progressive
Bits/(Pixel*Frame)               : 0.142
Stream size                      : 1.73 GiB (87%)
Writing library                  : x264 core 107 r1745 4785e8e
Encoded date                     : UTC 2011-03-23 07:12:46

Audio
==========
ID                               : 2
Format                           : AAC
Format/Info                      : Advanced Audio Codec
Format profile                   : LC
Codec ID                         : 40
Duration                         : 1h 47mn
Bit rate mode                    : Variable
Bit rate                         : 352.8 Kbps
Maximum bit rate                 : 421 Kbps
Channel(s)                       : 6 channels
Channel positions                : Front: L C R, Side: L R, LFE
Sampling rate                    : 48.0 KHz
Compression mode                 : Lossy
Stream size                      : 270 MiB (13%)
Encoded date                     : UTC 2011-03-22 19:53:14

Subtitles                        : English | French | Spanish


----------------------------------------------------
IMDB Link: http://www.imdb.com/title/tt0977855/
----------------------------------------------------



Screen Shots:
==============    
http://chattchitto.net/chattchittorg/movies/brrip/2011/fair_game/1.pnp 
http://chattchitto.net/chattchittorg/movies/brrip/2011/fair_game/2.png 
http://chattchitto.net/chattchittorg/movies/brrip/2011/fair_game/3.png 
http://chattchitto.net/chattchittorg/movies/brrip/2011/fair_game/4.png 
http://chattchitto.net/chattchittorg/movies/brrip/2011/fair_game/5.png 
http://chattchitto.net/chattchittorg/movies/brrip/2011/fair_game/6.png 
http://chattchitto.net/chattchittorg/movies/brrip/2011/fair_game/7.png



ScreenShots Comparison:
=========================  
http://screenshotcomparison.com/comparison/38337



Plot:
======
CIA operative Valerie Plame discovers her identity is allegedly leaked by the government as payback for an op-ed article her husband wrote criticizing the Bush administration.



Release Info:
==============
original name .... : Fair Game 2010 720p BRRip H264 [ChattChitto RG]
ripper.............: TWiZTED
encoder............: Recalled2Life (R2L)
video codec........: H264/.MP4
video bitrate......: 2300
audio codec........: AAC-LC
aspect ratio.......: 2.40:1
resolution.........: 1280 x 528
genre..............: Biography | Drama | Thriller
runtime............: 1h 47mn
language...........: English
rating.............: PG-13
subtitles..........: English | French | Spanish
sample.............: Yes
2ch Audio..........: 2ch Audio for XBox Viewers
Compatibility .....: XBox | PS3 | WD Live



Source:
========
Fair.Game.1080p.BluRay.x264-TWiZTED  THANKS!!



Notes:
=======
ChattChitto RG Encourages Burning this Film with ConvertXtoDVD and Playing with VLC media player.
XBox 360 | PS3 | WD Live - Compatible 
Enhanced for your viewing pleasure ;)